<svg xmlns="http://www.w3.org/2000/svg" viewBox="0 0 231.33 143.41"><defs><style>.cls-1{fill:#00a49f;}.cls-2{fill:#ebe0be;}.cls-3{fill:#f4eed8;}.cls-4{fill:#353537;}.cls-5{fill:#fff;}.cls-6{fill:#f065a6;}.cls-7{fill:#e34932;}.cls-8{fill:#6d26d7;}.cls-9{fill:#00beb9;}.cls-10{fill:#0e0e15;}.cls-11{fill:#ff6748;}</style></defs><g id="Capa_2" data-name="Capa 2"><g id="OBJECTS"><path class="cls-1" d="M231.33,136.86a1028.4,1028.4,0,0,1-115.67,6.55A1028.56,1028.56,0,0,1,0,136.86a1023,1023,0,0,1,231.33,0Z"/><polygon class="cls-2" points="126.35 128.48 99.79 128.48 101.72 101.92 124.43 101.92 126.35 128.48"/><rect class="cls-3" x="93.68" y="123.52" width="38.79" height="4.96"/><rect class="cls-4" x="47.02" y="20.96" width="132.1" height="89.62" rx="3.54"/><rect class="cls-5" x="50.49" y="24.5" width="125.17" height="70.31"/><path class="cls-3" d="M47,98.66V107a3.54,3.54,0,0,0,3.55,3.54h125a3.53,3.53,0,0,0,3.54-3.54V98.66Z"/><polygon class="cls-2" points="175.66 24.5 175.66 29.65 50.48 29.65 50.48 24.5 175.66 24.5 175.66 24.5"/><rect class="cls-6" x="50.49" y="29.65" width="125.17" height="5.11"/><rect class="cls-7" x="152.21" y="29.65" width="23.45" height="5.11"/><rect class="cls-8" x="134.78" y="29.65" width="17.43" height="5.11"/><rect class="cls-8" x="117.83" y="39.23" width="53.83" height="13.56"/><rect class="cls-2" x="117.83" y="56.58" width="41.25" height="2.88"/><rect class="cls-3" x="117.83" y="62.86" width="53.83" height="2.87"/><rect class="cls-3" x="117.83" y="69.14" width="53.83" height="2.88"/><rect class="cls-3" x="117.83" y="75.41" width="53.83" height="2.88"/><rect class="cls-3" x="117.83" y="81.69" width="29.94" height="2.88"/><polygon class="cls-7" points="154.03 82.05 154.85 83.71 156.68 83.97 155.35 85.27 155.66 87.09 154.03 86.23 152.39 87.09 152.7 85.27 151.38 83.97 153.21 83.71 154.03 82.05"/><polygon class="cls-7" points="160.99 82.05 161.81 83.71 163.64 83.97 162.31 85.27 162.63 87.09 160.99 86.23 159.35 87.09 159.67 85.27 158.34 83.97 160.17 83.71 160.99 82.05"/><polygon class="cls-7" points="167.96 82.05 168.77 83.71 170.6 83.97 169.28 85.27 169.59 87.09 167.96 86.23 166.32 87.09 166.63 85.27 165.31 83.97 167.14 83.71 167.96 82.05"/><path class="cls-5" d="M159.33,27.07a1.19,1.19,0,1,1-1.19-1.18A1.19,1.19,0,0,1,159.33,27.07Z"/><path class="cls-5" d="M164.52,27.07a1.19,1.19,0,1,1-1.18-1.18A1.18,1.18,0,0,1,164.52,27.07Z"/><path class="cls-5" d="M169.72,27.07a1.19,1.19,0,1,1-1.18-1.18A1.18,1.18,0,0,1,169.72,27.07Z"/><rect class="cls-6" x="54.57" y="39.23" width="20.23" height="20.23"/><rect class="cls-2" x="54.57" y="63.31" width="20.23" height="5.82"/><rect class="cls-3" x="54.57" y="72.01" width="20.23" height="2.17"/><rect class="cls-3" x="54.57" y="76.84" width="20.23" height="2.17"/><rect class="cls-3" x="54.57" y="81.68" width="20.23" height="2.17"/><rect class="cls-3" x="54.57" y="86.51" width="20.23" height="2.17"/><rect class="cls-9" x="80.28" y="39.23" width="32.79" height="20.23"/><rect class="cls-2" x="80.28" y="63.31" width="32.79" height="5.82"/><rect class="cls-3" x="80.28" y="72.01" width="32.79" height="2.17"/><rect class="cls-3" x="80.28" y="76.84" width="32.79" height="2.17"/><rect class="cls-3" x="80.28" y="81.68" width="32.79" height="2.17"/><rect class="cls-3" x="80.28" y="86.51" width="20.23" height="2.17"/><path class="cls-4" d="M118,130.43V85.36a3.71,3.71,0,0,0-3.71-3.71H32.49a3.71,3.71,0,0,0-3.71,3.71v45.07Z"/><path class="cls-5" d="M115.66,86.13v44.3H31.13V86.13a1.75,1.75,0,0,1,1.75-1.75h81A1.74,1.74,0,0,1,115.66,86.13Z"/><path class="cls-3" d="M20.44,130.43H126.35a0,0,0,0,1,0,0V132a5.91,5.91,0,0,1-5.91,5.91H26.36A5.91,5.91,0,0,1,20.44,132v-1.55A0,0,0,0,1,20.44,130.43Z"/><rect class="cls-2" x="63.46" y="130.43" width="19.87" height="2.42"/><path class="cls-2" d="M126.35,130.43V132a5.9,5.9,0,0,1-5.91,5.91H26.36A5.91,5.91,0,0,1,20.44,132v-1.55h.08a5.92,5.92,0,0,0,5.84,4.95h94.08a5.91,5.91,0,0,0,5.83-4.95Z"/><path class="cls-2" d="M115.66,86.13v1.73H31.13V86.13a1.75,1.75,0,0,1,1.75-1.75h81A1.74,1.74,0,0,1,115.66,86.13Z"/><rect class="cls-6" x="31.13" y="87.86" width="84.53" height="3.45"/><rect class="cls-7" x="99.83" y="87.86" width="15.83" height="3.45"/><rect class="cls-8" x="88.06" y="87.86" width="11.77" height="3.45"/><rect class="cls-8" x="76.61" y="94.32" width="36.35" height="9.16"/><rect class="cls-2" x="76.61" y="106.04" width="27.85" height="1.94"/><rect class="cls-3" x="76.61" y="110.28" width="36.35" height="1.94"/><rect class="cls-3" x="76.61" y="114.52" width="36.35" height="1.94"/><rect class="cls-3" x="76.61" y="118.76" width="36.35" height="1.94"/><rect class="cls-3" x="76.61" y="123" width="20.22" height="1.94"/><polygon class="cls-7" points="101.06 123.24 101.61 124.36 102.85 124.54 101.95 125.42 102.16 126.65 101.06 126.07 99.95 126.65 100.16 125.42 99.27 124.54 100.5 124.36 101.06 123.24"/><polygon class="cls-7" points="105.76 123.24 106.31 124.36 107.55 124.54 106.66 125.42 106.87 126.65 105.76 126.07 104.65 126.65 104.86 125.42 103.97 124.54 105.21 124.36 105.76 123.24"/><polygon class="cls-7" points="110.46 123.24 111.02 124.36 112.25 124.54 111.36 125.42 111.57 126.65 110.46 126.07 109.36 126.65 109.57 125.42 108.67 124.54 109.91 124.36 110.46 123.24"/><path class="cls-5" d="M104.64,86.12a.81.81,0,1,1-.81-.8A.8.8,0,0,1,104.64,86.12Z"/><path class="cls-5" d="M108.15,86.12a.81.81,0,1,1-.81-.8A.8.8,0,0,1,108.15,86.12Z"/><path class="cls-5" d="M111.66,86.12a.81.81,0,1,1-.8-.8A.8.8,0,0,1,111.66,86.12Z"/><rect class="cls-6" x="33.89" y="94.32" width="13.66" height="13.66"/><rect class="cls-2" x="33.89" y="110.59" width="13.66" height="3.93"/><rect class="cls-3" x="33.89" y="116.46" width="13.66" height="1.47"/><rect class="cls-3" x="33.89" y="119.73" width="13.66" height="1.47"/><rect class="cls-3" x="33.89" y="122.99" width="13.66" height="1.46"/><rect class="cls-3" x="33.89" y="126.25" width="13.66" height="1.47"/><rect class="cls-9" x="51.25" y="94.32" width="22.15" height="13.66"/><rect class="cls-2" x="51.25" y="110.59" width="22.15" height="3.93"/><rect class="cls-3" x="51.25" y="116.46" width="22.15" height="1.47"/><rect class="cls-3" x="51.25" y="119.73" width="22.15" height="1.47"/><rect class="cls-3" x="51.25" y="122.99" width="22.15" height="1.46"/><rect class="cls-3" x="51.25" y="126.25" width="13.66" height="1.47"/><rect class="cls-10" x="183.15" y="109.28" width="17.39" height="28.62" rx="1.44"/><path class="cls-4" d="M198.85,109.79h-14a1.09,1.09,0,0,0-1.09,1.09v25.41a1.09,1.09,0,0,0,1.09,1.09h14a1.09,1.09,0,0,0,1.09-1.09V110.88A1.09,1.09,0,0,0,198.85,109.79Z"/><path class="cls-5" d="M184.56,110.93v24.65a1,1,0,0,0,1,1h12.55a1,1,0,0,0,1-1V110.93Z"/><rect class="cls-4" x="184.56" y="110.93" width="14.57" height="0.89"/><rect class="cls-6" x="184.56" y="111.82" width="14.57" height="1.15"/><rect class="cls-8" x="191.84" y="111.82" width="7.28" height="1.15"/><rect class="cls-7" x="195.79" y="111.82" width="3.34" height="1.15"/><path class="cls-4" d="M193.48,112.09h-3.27a1.15,1.15,0,0,1-1-.6l-.57-1h6.42l-.56,1A1.15,1.15,0,0,1,193.48,112.09Z"/><path class="cls-10" d="M193.29,111.42H190.4a.22.22,0,0,1-.22-.22h0a.22.22,0,0,1,.22-.22h2.89a.22.22,0,0,1,.22.22h0A.22.22,0,0,1,193.29,111.42Z"/><rect class="cls-5" x="182.63" y="113.85" width="0.52" height="1.96"/><rect class="cls-5" x="182.63" y="116.93" width="0.52" height="1.96"/><rect class="cls-5" x="200.54" y="113.85" width="0.52" height="1.96"/><rect class="cls-8" x="185.46" y="125.51" width="11.48" height="2.89"/><rect class="cls-2" x="185.46" y="129.21" width="8.8" height="0.61"/><rect class="cls-3" x="185.46" y="130.55" width="11.48" height="0.61"/><rect class="cls-3" x="185.46" y="131.89" width="11.48" height="0.61"/><rect class="cls-3" x="185.46" y="133.23" width="11.48" height="0.61"/><rect class="cls-3" x="185.46" y="134.57" width="6.39" height="0.61"/><polygon class="cls-7" points="193.19 134.65 193.36 135 193.75 135.06 193.47 135.33 193.54 135.72 193.19 135.54 192.84 135.72 192.9 135.33 192.62 135.06 193.01 135 193.19 134.65"/><polygon class="cls-7" points="194.67 134.65 194.85 135 195.24 135.06 194.96 135.33 195.02 135.72 194.67 135.54 194.32 135.72 194.39 135.33 194.11 135.06 194.5 135 194.67 134.65"/><polygon class="cls-7" points="196.16 134.65 196.33 135 196.72 135.06 196.44 135.33 196.51 135.72 196.16 135.54 195.81 135.72 195.88 135.33 195.59 135.06 195.98 135 196.16 134.65"/><rect class="cls-6" x="185.46" y="113.77" width="4.47" height="4.47"/><rect class="cls-2" x="185.46" y="119.1" width="4.47" height="1.29"/><rect class="cls-3" x="185.46" y="121.02" width="4.47" height="0.48"/><rect class="cls-3" x="185.46" y="122.09" width="4.47" height="0.48"/><rect class="cls-3" x="185.46" y="123.15" width="4.47" height="0.48"/><rect class="cls-3" x="185.46" y="124.22" width="4.47" height="0.48"/><rect class="cls-9" x="190.98" y="113.77" width="7.25" height="4.47"/><rect class="cls-2" x="190.98" y="119.1" width="7.25" height="1.29"/><rect class="cls-3" x="190.98" y="121.02" width="7.25" height="0.48"/><rect class="cls-3" x="190.98" y="122.09" width="7.25" height="0.48"/><rect class="cls-3" x="190.98" y="123.15" width="7.25" height="0.48"/><rect class="cls-3" x="190.98" y="124.22" width="4.47" height="0.48"/><rect class="cls-4" x="128.22" y="105.79" width="53.27" height="32.1" rx="1.93"/><path class="cls-5" d="M177.88,107.4v28.88H130.77a1.15,1.15,0,0,1-1.15-1.15V108.55a1.16,1.16,0,0,1,1.15-1.15Z"/><path class="cls-10" d="M180.9,121.84a1.13,1.13,0,1,1-2.26,0,1.13,1.13,0,1,1,2.26,0Z"/><path class="cls-2" d="M177.88,107.4v2.45H129.62v-1.3a1.16,1.16,0,0,1,1.15-1.15Z"/><path class="cls-5" d="M171.51,108.56a.5.5,0,0,1-.5.5.5.5,0,0,1,0-1A.5.5,0,0,1,171.51,108.56Z"/><path class="cls-5" d="M174,108.56a.5.5,0,0,1-.5.5.5.5,0,0,1,0-1A.5.5,0,0,1,174,108.56Z"/><path class="cls-5" d="M176.52,108.56a.5.5,0,0,1-.5.5.5.5,0,0,1,0-1A.5.5,0,0,1,176.52,108.56Z"/><rect class="cls-6" x="129.62" y="109.85" width="48.25" height="1.97"/><rect class="cls-7" x="168.84" y="109.85" width="9.04" height="1.97"/><rect class="cls-8" x="162.12" y="109.85" width="6.72" height="1.97"/><rect class="cls-8" x="155.58" y="113.54" width="20.75" height="5.23"/><rect class="cls-2" x="155.58" y="120.23" width="15.9" height="1.11"/><rect class="cls-3" x="155.58" y="122.65" width="20.75" height="1.11"/><rect class="cls-3" x="155.58" y="125.07" width="20.75" height="1.11"/><rect class="cls-3" x="155.58" y="127.49" width="20.75" height="1.11"/><rect class="cls-3" x="155.58" y="129.91" width="11.54" height="1.11"/><polygon class="cls-7" points="169.54 130.05 169.85 130.69 170.56 130.79 170.05 131.29 170.17 131.99 169.54 131.66 168.91 131.99 169.03 131.29 168.52 130.79 169.22 130.69 169.54 130.05"/><polygon class="cls-7" points="172.22 130.05 172.54 130.69 173.24 130.79 172.73 131.29 172.85 131.99 172.22 131.66 171.59 131.99 171.71 131.29 171.2 130.79 171.91 130.69 172.22 130.05"/><polygon class="cls-7" points="174.91 130.05 175.22 130.69 175.93 130.79 175.42 131.29 175.54 131.99 174.91 131.66 174.28 131.99 174.4 131.29 173.88 130.79 174.59 130.69 174.91 130.05"/><rect class="cls-6" x="131.2" y="113.54" width="7.8" height="7.8"/><rect class="cls-2" x="131.2" y="122.83" width="7.8" height="2.24"/><rect class="cls-3" x="131.2" y="126.18" width="7.8" height="0.84"/><rect class="cls-3" x="131.2" y="128.04" width="7.8" height="0.84"/><rect class="cls-3" x="131.2" y="129.91" width="7.8" height="0.84"/><rect class="cls-3" x="131.2" y="131.77" width="7.8" height="0.84"/><rect class="cls-9" x="141.11" y="113.54" width="12.64" height="7.8"/><rect class="cls-2" x="141.11" y="122.83" width="12.64" height="2.24"/><rect class="cls-3" x="141.11" y="126.18" width="12.64" height="0.84"/><rect class="cls-3" x="141.11" y="128.04" width="12.64" height="0.84"/><rect class="cls-3" x="141.11" y="129.91" width="12.64" height="0.84"/><rect class="cls-3" x="141.11" y="131.77" width="7.8" height="0.84"/><path class="cls-11" d="M31.42,70.57A2.42,2.42,0,1,1,29,68.15,2.42,2.42,0,0,1,31.42,70.57Z"/><path class="cls-8" d="M22.87,112.4A2.43,2.43,0,1,1,20.44,110,2.42,2.42,0,0,1,22.87,112.4Z"/><path class="cls-5" d="M190,66.71a2.42,2.42,0,1,1-2.42-2.42A2.42,2.42,0,0,1,190,66.71Z"/><circle class="cls-8" cx="187.7" cy="33.4" r="2.42"/><path class="cls-8" d="M195.78,42.38a3.16,3.16,0,1,1-3.16-3.15A3.17,3.17,0,0,1,195.78,42.38Z"/><path class="cls-8" d="M18.47,121.5a3.16,3.16,0,1,1-3.15-3.16A3.15,3.15,0,0,1,18.47,121.5Z"/><path class="cls-5" d="M200.61,73a3.16,3.16,0,1,1-3.15-3.15A3.15,3.15,0,0,1,200.61,73Z"/><path class="cls-11" d="M23.58,78.33a3.14,3.14,0,1,1-3.14-3.14A3.13,3.13,0,0,1,23.58,78.33Z"/><path class="cls-5" d="M188.6,11.69l.64-2.27.65,2.27a7.38,7.38,0,0,0,3.58,4.49h0a7.43,7.43,0,0,0-3.58,4.5L189.24,23l-.64-2.27a7.46,7.46,0,0,0-3.58-4.5h0A7.41,7.41,0,0,0,188.6,11.69Z"/><path class="cls-5" d="M179.63,4.93l.46-1.62.46,1.62a5.28,5.28,0,0,0,2.55,3.19h0a5.3,5.3,0,0,0-2.55,3.2l-.46,1.62-.46-1.62a5.3,5.3,0,0,0-2.55-3.2h0A5.28,5.28,0,0,0,179.63,4.93Z"/><path class="cls-5" d="M214.42,102.69l.42,1.48.42-1.48a4.8,4.8,0,0,1,2.33-2.91h0a4.8,4.8,0,0,1-2.33-2.91l-.42-1.48-.42,1.48a4.82,4.82,0,0,1-2.32,2.91h0A4.82,4.82,0,0,1,214.42,102.69Z"/><path class="cls-5" d="M208.61,107.08l.3,1,.29-1a3.43,3.43,0,0,1,1.66-2.07h0a3.43,3.43,0,0,1-1.66-2.07l-.29-1-.3,1A3.45,3.45,0,0,1,207,105h0A3.45,3.45,0,0,1,208.61,107.08Z"/><path class="cls-8" d="M47.43,14.12,48,16l.53-1.87a6.11,6.11,0,0,1,2.95-3.69h0a6.11,6.11,0,0,1-2.95-3.69L48,4.87l-.53,1.87a6.06,6.06,0,0,1-2.94,3.69h0A6.06,6.06,0,0,1,47.43,14.12Z"/><path class="cls-8" d="M40.07,19.67,40.45,21l.37-1.33a4.33,4.33,0,0,1,2.1-2.62h0a4.34,4.34,0,0,1-2.1-2.63l-.37-1.32-.38,1.32A4.36,4.36,0,0,1,38,17.05h0A4.34,4.34,0,0,1,40.07,19.67Z"/><path class="cls-5" d="M28.33,51.94H27.16a4.59,4.59,0,0,0-.38-.91l.83-.83a.6.6,0,0,0,0-.83l-1-1a.59.59,0,0,0-.83,0l-.82.83a4.35,4.35,0,0,0-.92-.38V47.66a.58.58,0,0,0-.59-.58H22.07a.58.58,0,0,0-.58.58v1.18a4.35,4.35,0,0,0-.92.38l-.83-.83a.59.59,0,0,0-.83,0l-1,1a.59.59,0,0,0,0,.83l.83.83a4.07,4.07,0,0,0-.38.91H17.21a.59.59,0,0,0-.59.59v1.39a.59.59,0,0,0,.59.59h1.17a4.07,4.07,0,0,0,.38.91l-.83.83a.59.59,0,0,0,0,.83l1,1a.59.59,0,0,0,.83,0l.83-.83a4.35,4.35,0,0,0,.92.38v1.18a.58.58,0,0,0,.58.58h1.39a.58.58,0,0,0,.59-.58V57.61a4.35,4.35,0,0,0,.92-.38l.82.83a.59.59,0,0,0,.83,0l1-1a.6.6,0,0,0,0-.83l-.83-.83a4.59,4.59,0,0,0,.38-.91h1.17a.59.59,0,0,0,.58-.59V52.53A.59.59,0,0,0,28.33,51.94Zm-5.56,3.74a2.46,2.46,0,1,1,2.45-2.45A2.45,2.45,0,0,1,22.77,55.68Z"/><path class="cls-5" d="M35.76,36.06H34.22a6.42,6.42,0,0,0-.5-1.21l1.09-1.09a.77.77,0,0,0,0-1.09l-1.3-1.3a.77.77,0,0,0-1.09,0l-1.09,1.09A6.13,6.13,0,0,0,30.12,32V30.42a.76.76,0,0,0-.77-.77H27.52a.76.76,0,0,0-.77.77V32a5.89,5.89,0,0,0-1.21.49l-1.1-1.09a.77.77,0,0,0-1.09,0l-1.29,1.3a.77.77,0,0,0,0,1.09l1.09,1.09a5.82,5.82,0,0,0-.5,1.21H21.1a.78.78,0,0,0-.77.77v1.84a.78.78,0,0,0,.77.77h1.55a5.82,5.82,0,0,0,.5,1.21l-1.09,1.09a.77.77,0,0,0,0,1.09l1.29,1.3a.77.77,0,0,0,1.09,0l1.1-1.1a5.4,5.4,0,0,0,1.21.5v1.55a.77.77,0,0,0,.77.77h1.83a.77.77,0,0,0,.77-.77V43.53a5.61,5.61,0,0,0,1.21-.5l1.09,1.1a.77.77,0,0,0,1.09,0l1.3-1.3a.77.77,0,0,0,0-1.09l-1.09-1.09a6.42,6.42,0,0,0,.5-1.21h1.54a.77.77,0,0,0,.77-.77V36.83A.77.77,0,0,0,35.76,36.06ZM28.43,41a3.23,3.23,0,1,1,3.24-3.23A3.23,3.23,0,0,1,28.43,41Z"/><polygon class="cls-5" points="72.83 7.42 73.81 9.4 75.99 9.72 74.41 11.26 74.78 13.44 72.83 12.41 70.88 13.44 71.25 11.26 69.67 9.72 71.85 9.4 72.83 7.42"/><polygon class="cls-5" points="81.61 7.42 82.59 9.4 84.77 9.72 83.19 11.26 83.56 13.44 81.61 12.41 79.65 13.44 80.03 11.26 78.45 9.72 80.63 9.4 81.61 7.42"/><polygon class="cls-5" points="90.39 7.42 91.37 9.4 93.55 9.72 91.97 11.26 92.34 13.44 90.39 12.41 88.43 13.44 88.81 11.26 87.23 9.72 89.41 9.4 90.39 7.42"/><polygon class="cls-5" points="99.17 7.42 100.15 9.4 102.33 9.72 100.75 11.26 101.12 13.44 99.17 12.41 97.22 13.44 97.59 11.26 96.01 9.72 98.19 9.4 99.17 7.42"/><polygon class="cls-5" points="107.95 7.42 108.93 9.4 111.11 9.72 109.53 11.26 109.9 13.44 107.95 12.41 105.99 13.44 106.37 11.26 104.79 9.72 106.97 9.4 107.95 7.42"/><path class="cls-11" d="M197,81.94a9.37,9.37,0,1,0,9.37,9.37A9.37,9.37,0,0,0,197,81.94Zm-1.68,1.35a6.93,6.93,0,0,0-2.08,3.42,8.25,8.25,0,0,1-2.11-1.11A8.12,8.12,0,0,1,195.27,83.29Zm-4.78,3A9,9,0,0,0,193,87.58a15.81,15.81,0,0,0-.41,3.28h-3.77A8.12,8.12,0,0,1,190.49,86.27Zm-1.72,5.5h3.77a15.89,15.89,0,0,0,.43,3.36,9.22,9.22,0,0,0-2.44,1.27A8.14,8.14,0,0,1,188.77,91.77Zm2.35,5.3a8.13,8.13,0,0,1,2.1-1.08,6.83,6.83,0,0,0,2.05,3.34A8.15,8.15,0,0,1,191.12,97.07ZM196.49,99c-1-.3-1.84-1.52-2.4-3.25a11.48,11.48,0,0,1,2.4-.34Zm0-4.5a11.84,11.84,0,0,0-2.64.38,14.81,14.81,0,0,1-.4-3.09h3Zm0-3.62h-3a15.57,15.57,0,0,1,.38-3,11.93,11.93,0,0,0,2.66.39Zm0-3.53a11,11,0,0,1-2.42-.35c.55-1.78,1.43-3,2.42-3.34Zm8.64,3.53h-3.78a15.16,15.16,0,0,0-.41-3.28,9.06,9.06,0,0,0,2.47-1.31A8.12,8.12,0,0,1,205.13,90.86Zm-2.31-5.26a8.32,8.32,0,0,1-2.12,1.11,6.92,6.92,0,0,0-2.07-3.42A8.2,8.2,0,0,1,202.82,85.6Zm-5.42-2c1,.3,1.88,1.56,2.43,3.34a11,11,0,0,1-2.43.35Zm0,4.6a12,12,0,0,0,2.67-.39,15.59,15.59,0,0,1,.37,3h-3Zm0,3.53h3a14.81,14.81,0,0,1-.4,3.09,11.67,11.67,0,0,0-2.64-.38Zm0,7.21V95.39a11.38,11.38,0,0,1,2.4.34C199.25,97.46,198.38,98.68,197.4,99Zm1.23.35A7,7,0,0,0,200.68,96a8.23,8.23,0,0,1,2.09,1.08A8.16,8.16,0,0,1,198.63,99.33Zm4.74-2.93a9.29,9.29,0,0,0-2.45-1.27,15.27,15.27,0,0,0,.43-3.36h3.78A8.21,8.21,0,0,1,203.37,96.4Z"/><path class="cls-11" d="M145.88,5.83l-4.27,1.59L145.88,9v2.11l-6.22-2.5V6.22l6.22-2.5Z"/><path class="cls-11" d="M154.12,0l-4.45,14.84h-2.54L151.58,0Z"/><path class="cls-11" d="M154.77,9,159,7.42l-4.27-1.59V3.72L161,6.22V8.63l-6.22,2.5Z"/></g></g></svg>